<?xml version="1.0" encoding="UTF-8" standalone="no"?>
<!-- Created with Inkscape (http://www.inkscape.org/) -->

<svg
   width="210mm"
   height="297mm"
   viewBox="0 0 210 297"
   version="1.1"
   id="svg8"
   inkscape:version="1.1.1 (3bf5ae0d25, 2021-09-20)"
   sodipodi:docname="icon.svg"
   inkscape:export-filename="/home/zen/aplikasi-android/murajaah/tambahan/icon.png"
   inkscape:export-xdpi="74.832954"
   inkscape:export-ydpi="74.832954"
   xmlns:inkscape="http://www.inkscape.org/namespaces/inkscape"
   xmlns:sodipodi="http://sodipodi.sourceforge.net/DTD/sodipodi-0.dtd"
   xmlns="http://www.w3.org/2000/svg"
   xmlns:svg="http://www.w3.org/2000/svg"
   xmlns:rdf="http://www.w3.org/1999/02/22-rdf-syntax-ns#"
   xmlns:cc="http://creativecommons.org/ns#"
   xmlns:dc="http://purl.org/dc/elements/1.1/">
  <defs
     id="defs2" />
  <sodipodi:namedview
     id="base"
     pagecolor="#ffffff"
     bordercolor="#666666"
     borderopacity="1.0"
     inkscape:pageopacity="0.0"
     inkscape:pageshadow="2"
     inkscape:zoom="0.22768799"
     inkscape:cx="-614.87653"
     inkscape:cy="559.97684"
     inkscape:document-units="mm"
     inkscape:current-layer="layer1"
     showgrid="false"
     inkscape:window-width="1330"
     inkscape:window-height="743"
     inkscape:window-x="36"
     inkscape:window-y="0"
     inkscape:window-maximized="1"
     inkscape:pagecheckerboard="0" />
  <metadata
     id="metadata5">
    <rdf:RDF>
      <cc:Work
         rdf:about="">
        <dc:format>image/svg+xml</dc:format>
        <dc:type
           rdf:resource="http://purl.org/dc/dcmitype/StillImage" />
        <dc:title />
      </cc:Work>
    </rdf:RDF>
  </metadata>
  <g
     inkscape:label="Layer 1"
     inkscape:groupmode="layer"
     id="layer1">
    <rect
       style="fill:#d8b4fe;fill-opacity:1;stroke-width:0.264583"
       id="rect815"
       width="339.42264"
       height="339.42264"
       x="-269.54272"
       y="-14.452381"
       inkscape:export-xdpi="74.832954"
       inkscape:export-ydpi="74.832954"
       inkscape:export-filename="/home/zen/aplikasi-android/listicle/tambahan/icon.png" />
    <path
       fill-rule="evenodd"
       clip-rule="evenodd"
       d="m -157.84871,116.57642 a 19.334836,19.334836 0 0 1 19.33478,-19.33478 h 12.88996 a 19.334836,19.334836 0 0 1 19.33478,19.33478 v 12.88996 a 19.334836,19.334836 0 0 1 -19.33478,19.33478 h -12.88996 a 19.334836,19.334836 0 0 1 -19.33478,-19.33478 z m 0,64.44949 a 19.334836,19.334836 0 0 1 19.33478,-19.33477 h 12.88996 a 19.334836,19.334836 0 0 1 19.33478,19.33477 v 12.88979 a 19.334836,19.334836 0 0 1 -19.33478,19.33496 h -12.88996 a 19.334836,19.334836 0 0 1 -19.33478,-19.33496 z m 64.449314,-64.44949 a 19.334836,19.334836 0 0 1 19.33496,-19.33478 h 12.88979 a 19.334836,19.334836 0 0 1 19.33496,19.33478 v 12.88996 a 19.334836,19.334836 0 0 1 -19.33496,19.33478 h -12.88979 a 19.334836,19.334836 0 0 1 -19.33496,-19.33478 z m 32.22475,51.55952 a 6.4449459,6.4449459 0 1 0 -12.88979,0 v 12.88997 h -12.88997 a 6.4449459,6.4449459 0 1 0 0,12.88979 h 12.88997 v 12.88998 a 6.4449459,6.4449459 0 1 0 12.88979,0 V 193.9157 h 12.88998 a 6.4449459,6.4449459 0 1 0 0,-12.88979 h -12.88998 z"
       fill="currentColor"
       id="path860"
       style="fill:#581c87;fill-opacity:1;stroke-width:6.44495"
       inkscape:export-filename="/home/zen/aplikasi-android/listicle/tambahan/icon.png"
       inkscape:export-xdpi="74.832954"
       inkscape:export-ydpi="74.832954" />
  </g>
</svg>
